# xmcd
#
# Track frame offsets: 
#        150
#        19447
#        43015
#        92680
#
# Disc length: 1667 seconds
#
# Revision: 0
# Processed by: cddbd v1.5PL3 Copyright (c) Steve Scherf et al.
# Submitted via: ExactAudioCopy v0.95a4
#
DISCID=2c068104
DTITLE=COOL DRIVE - NEW DAY
DYEAR=2003
DGENRE=JPop
TTITLE0=NEW DAY
TTITLE1=ｽﾛｰｽﾀｰﾀｰ
TTITLE2=NEW DAY -NU DUB MIX-
TTITLE3=EXTRA
EXTD=
EXTT0=
EXTT1=
EXTT2=
EXTT3=
PLAYORDER=
